<svg width="50" height="50" viewBox="0 0 50 50" fill="none" xmlns="http://www.w3.org/2000/svg">
<circle cx="25" cy="25" r="25" fill="#FF5B5B"/>
<path fill-rule="evenodd" clip-rule="evenodd" d="M18.3417 18.3417C17.8861 18.7973 17.8861 19.536 18.3417 19.9916L30.0084 31.6583C30.464 32.1139 31.2027 32.1139 31.6583 31.6583C32.1139 31.2027 32.1139 30.464 31.6583 30.0084L19.9916 18.3417C19.536 17.8861 18.7973 17.8861 18.3417 18.3417Z" fill="white"/>
<path fill-rule="evenodd" clip-rule="evenodd" d="M31.6583 18.3417C32.1139 18.7973 32.1139 19.536 31.6583 19.9916L19.9916 31.6583C19.536 32.1139 18.7973 32.1139 18.3417 31.6583C17.8861 31.2027 17.8861 30.464 18.3417 30.0084L30.0084 18.3417C30.464 17.8861 31.2027 17.8861 31.6583 18.3417Z" fill="white"/>
</svg>
