<svg width="40" height="40" viewBox="0 0 40 40" fill="none" xmlns="http://www.w3.org/2000/svg">
<circle cx="20" cy="20" r="20" fill="white"/>
<path fill-rule="evenodd" clip-rule="evenodd" d="M16.625 14.1667C14.7972 14.1667 13.3333 15.6273 13.3333 17.4074C13.3333 18.2744 13.6782 19.062 14.2445 19.6457L19.9999 25.4799L25.6508 19.7493C25.6566 19.7435 25.6624 19.7378 25.6682 19.7322C26.2863 19.1411 26.6666 18.3178 26.6666 17.4074C26.6666 15.6273 25.2027 14.1667 23.375 14.1667C22.9782 14.1667 22.5137 14.3889 21.9968 14.8467C21.493 15.2929 21.0419 15.8719 20.6785 16.3815C20.5221 16.6008 20.2693 16.7311 20 16.7311C19.7306 16.7311 19.4778 16.6008 19.3214 16.3815C18.9581 15.8719 18.5069 15.2929 18.0031 14.8467C17.4863 14.3889 17.0217 14.1667 16.625 14.1667ZM11.6666 17.4074C11.6666 14.6874 13.8963 12.5 16.625 12.5C17.6233 12.5 18.473 13.0365 19.1082 13.5991C19.4353 13.8888 19.7345 14.2114 20 14.5289C20.2654 14.2114 20.5646 13.8888 20.8917 13.5991C21.5269 13.0365 22.3766 12.5 23.375 12.5C26.1036 12.5 28.3333 14.6874 28.3333 17.4074C28.3333 18.7899 27.7547 20.0383 26.8294 20.9279L20.5933 27.2518C20.4367 27.4106 20.223 27.5 20 27.5C19.777 27.5 19.5633 27.4107 19.4067 27.2519L13.0514 20.8095C12.1957 19.9292 11.6666 18.7293 11.6666 17.4074Z" fill="#3A3379"/>
</svg>
