<svg width="40" height="40" viewBox="0 0 40 40" fill="none" xmlns="http://www.w3.org/2000/svg">
<circle cx="20" cy="20" r="20" fill="#F6F7F8"/>
<path fill-rule="evenodd" clip-rule="evenodd" d="M20.5416 28.7066C22.0886 27.3263 26.4167 22.9752 26.4167 17.5C26.4167 14.1667 24.4115 10.8333 20 10.8333C15.5886 10.8333 13.5834 14.1667 13.5834 17.5C13.5834 22.9752 17.9115 27.3263 19.4585 28.7066C19.7718 28.9862 20.2283 28.9862 20.5416 28.7066ZM20 20C21.5188 20 22.75 18.7688 22.75 17.25C22.75 15.7312 21.5188 14.5 20 14.5C18.4813 14.5 17.25 15.7312 17.25 17.25C17.25 18.7688 18.4813 20 20 20Z" fill="#989BA1"/>
</svg>
