<svg width="300" height="86" viewBox="0 0 300 86" fill="none" xmlns="http://www.w3.org/2000/svg">
<path d="M237.426 85.954H241.533L239.208 75.0885H235.101L237.426 85.954Z" fill="#E5EEF4"/>
<path d="M200.433 85.954H204.54L206.823 75.0885H202.719L200.433 85.954Z" fill="#D4E3ED"/>
<path d="M216.264 30.7824H212.157L203.345 72.2371H207.452L216.264 30.7824Z" fill="#D4E3ED"/>
<path d="M220.844 9.23758L218.847 0H218.701L212.923 27.1833H217.03L220.844 9.23758Z" fill="#D4E3ED"/>
<path d="M229.609 30.7824H225.502L234.464 72.2371H238.571L229.609 30.7824Z" fill="#E5EEF4"/>
<path d="M222.954 0H222.804H218.847L220.844 9.23758L224.722 27.1833H228.829L222.954 0Z" fill="#E5EEF4"/>
<path d="M225.502 30.7824H229.609L228.829 27.1833H224.722L225.502 30.7824Z" fill="#D4E3ED"/>
<path d="M217.03 27.1833H212.923L212.157 30.7824H216.264L217.03 27.1833Z" fill="#B9D1E1"/>
<path d="M234.321 71.4894L235.101 75.0885H239.208L238.428 71.4894H234.321Z" fill="#D4E3ED"/>
<path d="M203.485 71.4894L202.719 75.0885H206.823L207.588 71.4894H203.485Z" fill="#B9D1E1"/>
<path d="M249.608 85.954H253.715L256.005 75.0885H251.898L249.608 85.954Z" fill="#D4E3ED"/>
<path d="M252.524 72.2371H256.631L265.439 30.7824H261.336L252.524 72.2371Z" fill="#D4E3ED"/>
<path d="M268.023 0H267.876L262.098 27.1833H266.205L270.019 9.23758L268.023 0Z" fill="#D4E3ED"/>
<path d="M278.784 30.7824H274.677L283.639 72.2371H287.747L278.784 30.7824Z" fill="#E5EEF4"/>
<path d="M288.312 75.0885H284.205L286.605 85.954H290.712L288.312 75.0885Z" fill="#E5EEF4"/>
<path d="M272.13 0H271.983H268.022L270.019 9.23758L273.901 27.1833H278.008L272.13 0Z" fill="#E5EEF4"/>
<path d="M274.677 30.7824H278.784L278.008 27.1833H273.901L274.677 30.7824Z" fill="#D4E3ED"/>
<path d="M266.205 27.1833H262.098L261.336 30.7824H265.44L266.205 27.1833Z" fill="#B9D1E1"/>
<path d="M283.428 71.4894L284.205 75.0885H288.312L287.535 71.4894H283.428Z" fill="#D4E3ED"/>
<path d="M252.664 71.4894L251.898 75.0885H256.005L256.771 71.4894H252.664Z" fill="#B9D1E1"/>
<path d="M204.533 8.93707L199.31 27.1833H215.406L210.186 8.93707H204.533Z" fill="#B9D1E1"/>
<path d="M280.827 8.93707H279.743H272.835L276.291 21.0118L278.055 27.1833H286.051L280.827 8.93707Z" fill="#EFF5F9"/>
<path d="M257.204 8.93707L262.427 27.1833H270.42L265.2 8.93707H257.204Z" fill="#EFF5F9"/>
<path d="M210.186 8.93707L215.406 27.1833H223.534L218.314 8.93707H210.186Z" fill="#EFF5F9"/>
<path d="M241.576 8.93707L246.796 27.1833H254.792L249.572 8.93707H241.576Z" fill="#EFF5F9"/>
<path d="M225.945 8.93707L231.169 27.1833H239.161L233.942 8.93707H225.945Z" fill="#EFF5F9"/>
<path d="M218.314 8.93707L223.534 27.1833H231.169L225.945 8.93707H218.314Z" fill="#D4E3ED"/>
<path d="M233.942 8.93707L239.162 27.1833H246.796L241.576 8.93707H233.942Z" fill="#D4E3ED"/>
<path d="M249.573 8.93707L254.792 27.1833H262.427L257.204 8.93707H249.573Z" fill="#D4E3ED"/>
<path d="M276.291 21.0118L272.835 8.93707H265.2L270.42 27.1833H274.523H278.054L276.291 21.0118Z" fill="#D4E3ED"/>
<path d="M280.827 8.93707L286.051 27.1833H290.619L285.399 8.93707H280.827Z" fill="#D4E3ED"/>
<path d="M265.787 71.4894H190.573L195.796 53.2432H271.01L265.787 71.4894Z" fill="#B9D1E1"/>
<path d="M300 71.4894H206.669L201.449 53.2432H294.78L300 71.4894Z" fill="#EFF5F9"/>
<path d="M221.856 71.4894H214.221L209.001 53.2432H216.636L221.856 71.4894Z" fill="#D4E3ED"/>
<path d="M237.487 71.4894H229.852L224.629 53.2432H232.264L237.487 71.4894Z" fill="#D4E3ED"/>
<path d="M253.114 71.4894H245.48L240.26 53.2432H247.895L253.114 71.4894Z" fill="#D4E3ED"/>
<path d="M268.742 71.4894H261.111L255.887 53.2432H263.522L268.742 71.4894Z" fill="#D4E3ED"/>
<path d="M284.373 71.4894H276.738L271.518 53.2432H279.153L284.373 71.4894Z" fill="#D4E3ED"/>
<path d="M300 71.4894H292.365L287.146 53.2432H294.78L300 71.4894Z" fill="#D4E3ED"/>
<path d="M4.41846 84.5766H39.7803L39.1972 82.5909H5.00877L4.41846 84.5766Z" fill="#D4E3ED"/>
<path d="M32.0024 58.0695H12.3037L8.65442 70.341H35.6052L32.0024 58.0695Z" fill="#D4E3ED"/>
<path d="M25.5662 36.0917C24.5895 32.7394 19.8419 32.7323 18.8545 36.0917L15.9565 45.8302H28.4176L25.5662 36.0917Z" fill="#D4E3ED"/>
<path d="M28.4069 45.8195H15.9458L12.3037 58.0695H32.0025L28.4069 45.8195Z" fill="#EFF5F9"/>
<path d="M8.65446 70.3409L5.00879 82.5909H39.1972L35.6052 70.3409H8.65446Z" fill="#EFF5F9"/>
<path d="M44.3133 82.5909H0V85.954H44.3133V82.5909Z" fill="#D4E3ED"/>
<path d="M70.4519 71.8686H32.2887V58.463C38.9861 45.7586 47.315 32.3638 63.0568 9.24115H85.7072V59.0569H95.807V71.8686H85.7072V85.954H70.4519V71.8686ZM46.2703 59.4826H70.7739V20.7327H70.4519C59.3611 36.7321 52.381 47.6298 46.2703 59.0569V59.4826Z" fill="#8EB3CE"/>
<path d="M60.3198 71.8686H22.1566V58.463C28.8541 45.7586 37.1829 32.3638 52.9247 9.24115H75.568V59.0569H85.6713V71.8686H75.5751V85.954H60.3198V71.8686ZM36.1347 59.4826H60.6275V20.7327H60.3091C49.2004 36.7321 42.2382 47.6298 36.1239 59.0569L36.1347 59.4826Z" fill="#B9D1E1"/>
<path d="M131.255 73.382C122.006 73.382 116.604 63.8761 116.604 46.6853C116.604 29.6483 122.11 20.2104 131.255 20.2104L104.064 19.205C104.064 19.205 103.485 72.9956 104.064 73.3963C104.644 73.797 127.53 78.1403 127.53 78.1403L131.255 73.382Z" fill="#8EB3CE"/>
<path d="M131.255 7.62405H121.384L117.534 14.8438L135.981 17.452L139.122 29.1832C139.122 29.1832 135.934 75.3783 135.981 75.9579C136.027 76.5375 121.384 85.9504 121.384 85.9504H131.255C150.263 85.9504 161.794 70.8382 161.794 46.6316C161.794 22.4249 150.159 7.62405 131.255 7.62405Z" fill="#8EB3CE"/>
<path d="M90.791 46.6853C90.791 22.4786 102.476 7.62405 121.384 7.62405C140.292 7.62405 151.927 22.4285 151.927 46.6209C151.927 70.8132 140.41 85.9504 121.384 85.9504C102.358 85.9504 90.791 70.942 90.791 46.6853ZM135.981 46.6853C135.981 29.5946 130.579 20.2104 121.384 20.2104C112.189 20.2104 106.737 29.6626 106.737 46.6853C106.737 63.8582 112.139 73.382 121.384 73.382C130.629 73.382 135.981 63.8761 135.981 46.6853Z" fill="#B9D1E1"/>
<path d="M203.692 71.8686H165.529V58.463C172.226 45.7586 180.555 32.3638 196.297 9.24115H218.94V59.0569H229.04V71.8686H218.947V85.954H203.692V71.8686ZM179.507 59.4826H204.011V20.7327H203.692C192.601 36.7321 185.621 47.6298 179.507 59.0569V59.4826Z" fill="#8EB3CE"/>
<path d="M193.56 71.8686H155.393V58.463C162.091 45.7586 170.42 32.3638 186.162 9.24115H208.815V59.0569H218.912V71.8686H208.815V85.954H193.56V71.8686ZM169.389 59.4826H193.893V20.7327H193.575C182.484 36.7321 175.5 47.6298 169.389 59.0569V59.4826Z" fill="#B9D1E1"/>
</svg>
