<svg width="26" height="26" viewBox="0 0 26 26" fill="none" xmlns="http://www.w3.org/2000/svg">
<path fill-rule="evenodd" clip-rule="evenodd" d="M5.41669 5.41666C3.62176 5.41666 2.16669 6.87173 2.16669 8.66666V17.3333C2.16669 19.1282 3.62176 20.5833 5.41669 20.5833H20.5834C22.3783 20.5833 23.8334 19.1282 23.8334 17.3333V8.66666C23.8334 6.87173 22.3783 5.41666 20.5834 5.41666H5.41669ZM5.95409 7.72605C5.43461 7.4292 4.77285 7.60968 4.47601 8.12916C4.17917 8.64864 4.35965 9.3104 4.87912 9.60724L12.4625 13.9406C12.7955 14.1309 13.2044 14.1309 13.5374 13.9406L21.1208 9.60724C21.6402 9.3104 21.8207 8.64864 21.5239 8.12916C21.227 7.60968 20.5653 7.4292 20.0458 7.72605L12.9999 11.7522L5.95409 7.72605Z" fill="#989BA1"/>
</svg>
