<svg width="26" height="26" viewBox="0 0 26 26" fill="none" xmlns="http://www.w3.org/2000/svg">
<path fill-rule="evenodd" clip-rule="evenodd" d="M5.41669 5.41669C3.62176 5.41669 2.16669 6.87176 2.16669 8.66669V17.3334C2.16669 19.1283 3.62176 20.5834 5.41669 20.5834H20.5834C22.3783 20.5834 23.8334 19.1283 23.8334 17.3334V8.66669C23.8334 6.87176 22.3783 5.41669 20.5834 5.41669H5.41669ZM5.95409 7.72608C5.43461 7.42923 4.77285 7.60971 4.47601 8.12919C4.17917 8.64867 4.35965 9.31043 4.87912 9.60727L12.4625 13.9406C12.7955 14.1309 13.2044 14.1309 13.5374 13.9406L21.1208 9.60727C21.6402 9.31043 21.8207 8.64867 21.5239 8.12919C21.227 7.60971 20.5653 7.42923 20.0458 7.72608L12.9999 11.7523L5.95409 7.72608Z" fill="#7F74EB"/>
</svg>
