<svg width="16" height="15" viewBox="0 0 16 15" fill="none" xmlns="http://www.w3.org/2000/svg">
<path d="M1.17609 5.52743L4.51216 4.85132C4.7432 4.80449 4.94359 4.66201 5.0637 4.45917L7.28299 0.711033C7.60569 0.166024 8.39441 0.166024 8.71711 0.711033L10.9364 4.45917C11.0565 4.66201 11.2569 4.80449 11.4879 4.85132L14.824 5.52743C15.4729 5.65894 15.7167 6.45822 15.2516 6.9295L12.4765 9.74159C12.2827 9.93799 12.1987 10.2176 12.2521 10.4883L12.8773 13.6558C13.0118 14.3372 12.3026 14.8744 11.6831 14.5605L8.37669 12.8853C8.13992 12.7653 7.86018 12.7653 7.62341 12.8853L4.31701 14.5605C3.69746 14.8744 2.98832 14.3372 3.12281 13.6558L3.74797 10.4883C3.8014 10.2176 3.71737 9.93799 3.52356 9.74159L0.748464 6.9295C0.283387 6.45822 0.527161 5.65894 1.17609 5.52743Z" fill="#989BA1"/>
</svg>
