<svg width="18" height="17" viewBox="0 0 18 17" fill="none" xmlns="http://www.w3.org/2000/svg">
<path d="M1.49367 6.38017L5.16335 5.63645C5.41749 5.58495 5.63793 5.42821 5.77004 5.20508L8.21126 1.08214C8.56623 0.48263 9.43383 0.48263 9.7888 1.08214L12.23 5.20508C12.3621 5.42821 12.5826 5.58495 12.8367 5.63645L16.5064 6.38017C17.2202 6.52484 17.4884 7.40405 16.9768 7.92245L13.9242 11.0158C13.711 11.2318 13.6185 11.5394 13.6773 11.8371L14.365 15.3214C14.5129 16.0709 13.7329 16.6619 13.0514 16.3166L9.41433 14.4738C9.15389 14.3418 8.84617 14.3418 8.58573 14.4738L4.94868 16.3166C4.26718 16.6619 3.48713 16.0709 3.63507 15.3214L4.32275 11.8371C4.38152 11.5393 4.28908 11.2318 4.07589 11.0158L1.02329 7.92245C0.511701 7.40405 0.779853 6.52484 1.49367 6.38017Z" fill="#FF9376"/>
</svg>
